<svg id="Calque_1" data-name="Calque 1" xmlns="http://www.w3.org/2000/svg" viewBox="0 0 25.33 24.33"><defs><style>.cls-1{fill:#fff;}</style></defs><title>phone</title><path class="cls-1" d="M17.17,13.61A1.58,1.58,0,0,0,16,13.08a1.63,1.63,0,0,0-1.16.52L13.8,14.67l-.26-.14-.33-.18a11.61,11.61,0,0,1-2.78-2.53,6.84,6.84,0,0,1-.91-1.44c.28-.25.53-.52.78-.77l.28-.29a1.55,1.55,0,0,0,0-2.34l-.92-.92-.31-.32c-.2-.21-.42-.43-.64-.63a1.6,1.6,0,0,0-1.13-.5,1.66,1.66,0,0,0-1.15.5h0L5.26,6.28a2.47,2.47,0,0,0-.73,1.57A5.91,5.91,0,0,0,5,10.36a14.54,14.54,0,0,0,2.59,4.31,15.91,15.91,0,0,0,5.3,4.14,8.26,8.26,0,0,0,3,.88H16a2.55,2.55,0,0,0,2-.84v0a7.65,7.65,0,0,1,.59-.61l.44-.44a1.68,1.68,0,0,0,.51-1.17A1.62,1.62,0,0,0,19,15.47Zm1.21,3.56"/><path class="cls-1" d="M13.16,7.5A4.35,4.35,0,0,1,16.71,11a.45.45,0,0,0,.45.38h.08a.46.46,0,0,0,.38-.53A5.26,5.26,0,0,0,13.32,6.6a.46.46,0,0,0-.53.37.45.45,0,0,0,.37.53Zm0,0"/><path class="cls-1" d="M20.51,10.75A8.66,8.66,0,0,0,13.45,3.7a.46.46,0,1,0-.15.9,7.73,7.73,0,0,1,6.31,6.3.45.45,0,0,0,.45.38h.08a.45.45,0,0,0,.37-.52Zm0,0"/></svg>