<?xml version="1.0" encoding="utf-8"?>
<!-- Generator: Adobe Illustrator 21.0.0, SVG Export Plug-In . SVG Version: 6.00 Build 0)  -->
<svg version="1.1" id="Calque_1" xmlns="http://www.w3.org/2000/svg" xmlns:xlink="http://www.w3.org/1999/xlink" x="0px" y="0px"
	 viewBox="0 0 648.1 114" style="enable-background:new 0 0 648.1 114;" xml:space="preserve">
<style type="text/css">
	.st0{fill:#FFFFFF;}
	.st1{fill:#EF8422;}
</style>
<title>logo</title>
<path class="st0" d="M288.3,57.2c0,21.8-0.1,22.3,0.4,45h-26c0,0,0.8-23.8,0.8-45.4c0-16.7-1.1-45.8-1.1-45.8
	c12.2,0.6,27.5,0,27.5,0S288.3,41.2,288.3,57.2z M226.8,102.2l-1-10.1c-2.7,7-8.5,12.1-20,12.1c-12.5,0-20.2-8-20.2-23.5
	c0-10.3,0.4-30.4,0.1-37.4h27.6c-0.6,3.1-1.7,6.1-3.3,8.9c-3,4.4-6.9,10.8-6.9,17.2s3.6,13.8,14.1,13.8h0.6
	c10.5,0,14.1-7.3,14.1-13.8S228,56.7,225,52.2c-1.6-2.8-2.8-5.8-3.4-8.9h29.8c0,0-0.8,23.8-0.8,45.4c0.1,4.5,0.5,9,1.2,13.5
	L226.8,102.2z M144,104.2c-22.1,0-35.6-12.6-35.6-31.6c0-19.4,13.6-31.2,35.6-31.2c22.3,0,35.6,11.8,35.6,31.2
	C179.7,91.6,166.3,104.2,144,104.2L144,104.2z M143.5,57.3c-7.3,0-9.7,5.5-9.7,14.9s3,15.8,10.3,15.8c8.1,0,10-7,10-14.8
	S151.6,57.2,143.5,57.3L143.5,57.3z M98.7,102.3h-26c0,0,0.8-16.9,0.8-30c0-12.1-1.1-28.9-1.1-28.9c12.2,0.7,27.2,0,27.2,0
	s-1.3,17-1.3,29.4c0,11.4-0.1,6.6,0.5,29.3L98.7,102.3z M86,34.9c-6.7,0-12.1-5.4-12.1-12.1c0-6.7,5.4-12.1,12.1-12.1
	c6.7,0,12.1,5.4,12.1,12.1v0C98.1,29.5,92.7,34.9,86,34.9C86.1,34.9,86,34.9,86,34.9z M47.7,25.4c-6.4,0-7.7,4.3-7.7,11.3
	c0,0.8,0,3.2,0.1,6.6h19.4l-2.2,16.2H40.6c0.3,13.6,0.8,30.5,1,42.7h-26c0,0,0.8-28.8,0.8-39.5v-3.1H7L7.4,52l7.9-8.6
	c-0.2-3-0.4-5.5-0.4-7.8C14.9,17.3,27,9,43.6,9c10.4,0,17.9,2.6,21.9,5.9l-5,14.9C56.8,27,52.3,25.5,47.7,25.4L47.7,25.4z"/>
<path class="st1" d="M614.6,86.3c6.2,0,9.9-2.3,14.9-5.4l5.3,15.9c-5,2.5-11.5,6.7-23.6,6.7c-19.3,0-33.3-8.6-33.3-31.7
	c0-21.8,13.5-31.9,32.8-31.9c10.6,0,18.2,3.2,22.2,6.5l-5.1,15.1c-4.4-2.6-7.8-4.4-13.3-4.4c-7.4,0-10.1,5.4-10.1,14.8
	S607.2,86.3,614.6,86.3z M546.2,101.5l-1-10.2c-2.8,7-8.6,12.2-20.3,12.2c-12.7,0-20.5-8.2-20.5-23.8c0-10.5,0.4-30.8,0.1-37.9h25.9
	c-0.1,6.9-0.5,20.3-0.5,29.7s1.3,15.5,8,15.5s7.5-7.6,7.5-15.5c0-9.1-0.5-22.5-0.9-29.7h26.7c0,0-0.8,24.1-0.8,46
	c0.1,4.6,0.5,9.1,1.2,13.7L546.2,101.5z M496.7,101.5h-26.3c0-2-0.3-9.8-0.3-11.6c-2.7,8.3-10.6,13.8-19.3,13.6
	c-16.3,0-27.4-12.1-27.4-31.7s10.8-31.9,27.1-31.9c9.2,0,16.1,5.2,18.9,12.2C469.1,35.4,467.8,9,467.8,9s15.6,0.7,28,0
	c0,0-1.1,29.5-1.1,46.5c0,7.8,0,16,0.1,23.1C494.9,86.3,495.5,93.9,496.7,101.5z M460.1,56.2c-7.4,0-10.1,6.2-10.1,15.5
	s2.8,15.5,10.1,15.5c8.3,0,11-7.5,11-15.5S468.3,56.2,460.1,56.2z M393.8,88.4c7.9,0,15.2-3.1,20.4-5.8l4.9,14.2
	c-6,4.3-16.2,6.7-28.2,6.7c-19.2,0-33.1-8.6-33.1-31.7c0-21.8,13.5-31.9,32.7-31.9c17.2,0,26.8,7.6,26.8,20.2
	c0,15.6-18.8,20.9-33.1,17.1C384,82.6,385.8,88.4,393.8,88.4z M398.2,59.6c0-4-1.8-5.6-5-5.6c-6.6,0-9.2,7.2-9.6,15
	C388.5,70,398.2,70,398.2,59.6L398.2,59.6z M338.2,63.6c-5.3,0-9.1,2.2-9.1,13c0,7.9,0.4,18,1,24.9h-26.3c0,0,0.9-24.1,0.9-46
	c0-4.1-0.1-8.8-0.2-13.7h24.1c-0.1,3.6,0.1,13.2,0,16.3c1.6-5.3,6.6-18.3,18.1-18.3c3,0,5.9,0.4,8.8,1.1l-5,26
	C347.5,65.4,342.8,63.5,338.2,63.6L338.2,63.6z"/>
</svg>
